<svg xmlns="http://www.w3.org/2000/svg" viewBox="0 0 189 60"><defs><style>.cls-1{fill:#b42e2c;}.cls-2{fill:none;}</style></defs><title>KitchenAid</title><g id="Layer_2" data-name="Layer 2"><g id="Layer_1-2" data-name="Layer 1"><path id="path3033" class="cls-1" d="M15.63,27.79l5.15-5.68H14.94l-4.18,5.53A2.55,2.55,0,0,1,9,28.46H8V22.11H0V37.33H8V32.66H9.28a1.16,1.16,0,0,1,1.19.74l2.25,3.93H22.4L17.9,29.7a2.93,2.93,0,0,0-2.43-1.16c-.26,0-.53,0,.16-.75"/><path id="path3035" class="cls-1" d="M25,37.31h7.56V28.48H25Z"/><path id="path3039" class="cls-1" d="M28.89,27.74c2.1-.15,3.72-1.24,3.64-2.43s-1.85-2-3.94-1.9S24.87,24.65,25,25.84s1.85,2,3.94,1.9"/><path id="path3043" class="cls-1" d="M35.51,28.43h2.54v-3h7.14v3h3v2.91H45.3v1.74c0,1.75,2,1.64,2.9.85v2.48c-2.75,1.22-7.27,1.54-9.09.29a2,2,0,0,1-1.06-2V31.39H35.51"/><path id="path3047" class="cls-1" d="M65.58,28.93c-3.92-1.95-9.25-1.61-11.88-.18-4.21,2.29-4.15,6-.05,8.14,3,1.54,10,1.11,11.9-.63V33.8c-2.8,1.43-4.75,1.22-5.92.82-1.83-.62-1.87-3.2.47-3.65a8.14,8.14,0,0,1,5.48.82"/><path id="path3051" class="cls-1" d="M68.11,23.38V37.32h7.12V33a1.75,1.75,0,1,1,3.49-.21v4.5H85.8v-5.5c0-2.6-4.65-5.51-10.52-2.55l.11-5.89"/><path id="path3055" class="cls-1" d="M108.7,28.46v8.85h7.62V32.56c0-1.65,3.43-2.44,3.43,0v4.65h6.72V31.87c0-2.53-3.61-5.8-10.15-2.43v-1"/><path id="path3057" class="cls-1" d="M153.57,37.31h7.57V28.48h-7.57Z"/><path id="path3061" class="cls-1" d="M157.48,27.73c2.09-.15,3.72-1.23,3.64-2.43s-1.85-2-3.94-1.9-3.72,1.24-3.64,2.43,1.85,2.05,3.94,1.9"/><path id="path3073" class="cls-1" d="M185.59,26V25h.67c.34,0,.7.08.7.47s-.37.53-.78.53Zm.59,3a2.79,2.79,0,1,0-2.83-2.79,2.78,2.78,0,0,0,2.83,2.79m-2.27-2.79a2.27,2.27,0,1,1,2.27,2.33,2.26,2.26,0,0,1-2.27-2.33m1.68.22h.56l.85,1.39h.55l-.92-1.41a.84.84,0,0,0,.84-.89c0-.63-.38-.91-1.14-.91h-1.22v3.21h.48"/><path id="path3077" class="cls-1" d="M96.47,31.66H99.3c0-.9-.72-1.35-1.53-1.35a1.34,1.34,0,0,0-1.3,1.35m9.64,2.27a82.77,82.77,0,0,0-9.94,0c1.48,2.43,7.51,2.06,9.52.47l-.21,2.06c-4,2.39-16.29,2.28-16.5-3.27-.19-4.91,7.08-5.61,8.67-5.61,3.75,0,9.25,1.75,8.46,6.4"/><path id="path3081" class="cls-1" d="M135.3,31.23l2.22-4.12,1.8,4.12Zm-7.16,6.05h4.12l1.77-3.4h6.46l1.53,3.4h9.78l-7.61-15.14h-9.73c.95.37,1.21,1,.95,1.53"/><path id="path3085" class="cls-1" d="M174.69,31.68c-1.27-.94-3.72-.71-3.72.8,0,2.18,2.91,1.8,3.72,1.14Zm7.15-8.27V37.26H174.7v-.95c-3.54,2.75-11.48,1.27-11.48-3.17,0-5.45,8.62-6.19,11.53-4.29V23.41"/><rect class="cls-2" width="189" height="60"/></g></g></svg>