<svg xmlns="http://www.w3.org/2000/svg" viewBox="0 0 189 60"><defs><style>.cls-1{fill:#010101;}.cls-2{fill:none;}</style></defs><title>LaCornue</title><g id="Layer_2" data-name="Layer 2"><g id="Layer_1-2" data-name="Layer 1"><path class="cls-1" d="M53.19,23.93a.38.38,0,0,0-.37.34L51.42,31h0a.82.82,0,0,0,.25.65,1.21,1.21,0,0,0,.72.21h1.7a1.25,1.25,0,0,0,.74-.2.71.71,0,0,0,.19-.75L53.6,24.23a.4.4,0,0,0-.4-.3M47.64,38.12a.64.64,0,0,1-.31-.14.41.41,0,0,1-.08-.38L51,20.68a.87.87,0,0,1,.22-.39h0a1.06,1.06,0,0,1,.55-.14h2.83a1.2,1.2,0,0,1,.6.16,1.22,1.22,0,0,1,.22.42L59.38,37.6a.43.43,0,0,1-.09.4.77.77,0,0,1-.43.11H57.28a1,1,0,0,1-.53-.18,1.36,1.36,0,0,1-.27-.43L55.89,35a1.47,1.47,0,0,0-.38-.63,1.38,1.38,0,0,0-.88-.3H51.71a1.2,1.2,0,0,0-1.12.95L50,37.55a.74.74,0,0,1-.23.38.82.82,0,0,1-.56.18H47.64Z"/><path class="cls-1" d="M41.32,43.71a.63.63,0,0,1-.41-.19.58.58,0,0,1-.18-.41V17.3a.69.69,0,0,1,.16-.47.65.65,0,0,1,.47-.2H43a.87.87,0,0,1,.53.2.84.84,0,0,1,.17.47V39.72a1.4,1.4,0,0,0,.31.85,1.1,1.1,0,0,0,.77.3h102.9a.75.75,0,0,1,.42.14,1,1,0,0,1,.15.53v1.53a.7.7,0,0,1-.19.45.59.59,0,0,1-.45.19H41.32"/><path class="cls-1" d="M73,38.84a5.33,5.33,0,0,1-4.77-2.39c-.8-1.38-1.06-2.43-1.06-5.88V24.34c0-3.61.23-4.74,1.23-6.05a5.52,5.52,0,0,1,4.57-2c3.66,0,5.8,2.38,5.86,6.53a.64.64,0,0,1-.2.41h0v0a.65.65,0,0,1-.47.18h-1.6a.65.65,0,0,1-.42-.2,1.13,1.13,0,0,1-.25-.47C75.78,20.37,74.74,19,73,19c-2.31,0-2.77,1.76-2.77,4.61V31c0,3.2.45,5.05,2.8,5.05,1.9,0,2.89-1.46,3-4.33a.63.63,0,0,1,.67-.65h1.59a.63.63,0,0,1,.7.68c0,4.61-2.06,7.05-5.89,7.05m14-19.77c-2.41,0-2.86,1.62-2.86,4.52v8c0,2.85.46,4.49,2.86,4.49s2.86-1.72,2.86-4.49v-8c0-2.79-.46-4.52-2.78-4.52h-.08m0,19.77a5.42,5.42,0,0,1-4.62-2.06c-.91-1.27-1.25-2.66-1.25-5.15v-8.1c0-2.5.36-4,1.24-5.18a5.38,5.38,0,0,1,4.63-2,5.54,5.54,0,0,1,4.66,2c.89,1.28,1.23,2.74,1.23,5.18v8.1c0,2.48-.35,4-1.23,5.14a5.43,5.43,0,0,1-4.54,2.07Zm43,0A5.39,5.39,0,0,1,125.6,37c-.94-1.31-1.24-2.61-1.24-5.4V17.3a.65.65,0,0,1,.17-.45.71.71,0,0,1,.47-.22h1.66a.78.78,0,0,1,.52.19.74.74,0,0,1,.15.47V32.1c0,2.79.81,4,2.7,4s2.68-1.15,2.68-4V17.3a.89.89,0,0,1,.19-.49.86.86,0,0,1,.48-.18H135a.72.72,0,0,1,.48.2.76.76,0,0,1,.19.5V31.54c0,2.85-.32,4.27-1.23,5.42a5.15,5.15,0,0,1-4.29,1.88H130m9.15-.34a.75.75,0,0,1-.49-.19.58.58,0,0,1-.17-.43V17.3a.73.73,0,0,1,.21-.42.68.68,0,0,1,.45-.25h8.33a.7.7,0,0,1,.51.18.81.81,0,0,1,.13.49v1.41a.81.81,0,0,1-.16.5.92.92,0,0,1-.45.14h-4.92a1.39,1.39,0,0,0-.81.31,1.44,1.44,0,0,0-.33,1v3.94a1.19,1.19,0,0,0,.32.79,1.23,1.23,0,0,0,.82.32h4.17a.75.75,0,0,1,.49.19.79.79,0,0,1,.15.48v1.41a.65.65,0,0,1-.59.65H142.6a1.39,1.39,0,0,0-.76.35,1.26,1.26,0,0,0-.32.83v5.06a1.18,1.18,0,0,0,.29.83,1.12,1.12,0,0,0,.79.32h4.91A.79.79,0,0,1,148,36a.7.7,0,0,1,.21.49v1.38a.89.89,0,0,1-.18.46.91.91,0,0,1-.49.18h-8.32M99.45,26.65a1.18,1.18,0,0,1-.71-.34,1.09,1.09,0,0,1-.36-.83v-5a1.35,1.35,0,0,1,.37-.85,1.43,1.43,0,0,1,.78-.3h.37c2.75,0,3.77,1,3.77,3.61s-1,3.69-3.77,3.69h-.45M104,29.47h0c-.6-.64,0-1,.57-1.46a6.21,6.21,0,0,0,2.18-5.22c0-4-2.12-6.15-6.14-6.15H96.05a.82.82,0,0,0-.45.2.91.91,0,0,0-.19.47V37.86a.79.79,0,0,0,.15.45.72.72,0,0,0,.46.19h1.72a.62.62,0,0,0,.46-.19.69.69,0,0,0,.18-.45V30.47a1.25,1.25,0,0,1,.28-.81h0l0,0a1,1,0,0,1,1-.2c2.89,1.3,4.86,4.55,5.21,8.41,0,.33.13.63.55.63h1.66c.36,0,.52-.21.51-.6a12.43,12.43,0,0,0-3.63-8.4m17.39-12.66a.76.76,0,0,0-.49-.18H119.2a.64.64,0,0,0-.67.67c0,.23,0,2.11,0,4.64-2-3.25-4.94-5.31-8.2-5.31h-.06a.86.86,0,0,0-.48.18.74.74,0,0,0-.16.49V37.88a.67.67,0,0,0,.15.43.75.75,0,0,0,.49.19H112a.72.72,0,0,0,.49-.19.71.71,0,0,0,.18-.49V20.48a.83.83,0,0,1,0-.24c3.32,1.57,5.77,6.15,5.88,11.6,0,3.31,0,5.9,0,6a.65.65,0,0,0,.16.43.68.68,0,0,0,.48.19h1.69a.43.43,0,0,0,.17,0,1,1,0,0,0,.32-.15.74.74,0,0,0,.15-.5V17.25a.65.65,0,0,0-.15-.44"/><rect class="cls-2" width="189" height="60"/></g></g></svg>