<svg xmlns="http://www.w3.org/2000/svg" viewBox="0 0 189 60"><defs><style>.cls-1{fill:#010101;}.cls-2{fill:#fff;}.cls-3{fill:none;}</style></defs><title>Monigram</title><g id="Layer_2" data-name="Layer 2"><g id="Layer_1-2" data-name="Layer 1"><path class="cls-1" d="M87.27,20.69c6.39,0,8,5.48,8,9.3s-1.62,9.29-8,9.29-8-5.48-8-9.29S80.88,20.69,87.27,20.69Zm0,2.12c-3.72,0-5.62,3-5.62,7.18s1.9,7.18,5.62,7.18,5.62-3,5.62-7.18S91,22.81,87.27,22.81Zm63.44,16L146.16,24h0c0,1.64,0,3.88,0,4.4V38.81h-2.24V21.16h3.29l4.59,14.92h.1l4.59-14.92h3.29V38.81h-2.24V28.39c0-.52.05-2.76.05-4.4h-.05L153,38.81ZM54.89,20.69c6.39,0,8,5.48,8,9.3s-1.61,9.29-8,9.29-8-5.48-8-9.29S48.49,20.69,54.89,20.69Zm0,2.12c-3.72,0-5.63,3-5.63,7.18s1.91,7.18,5.63,7.18,5.62-3,5.62-7.18S58.61,22.81,54.89,22.81Zm20.76-1.65h2.24V38.81h-2.6l-8.7-14.26h0V38.81H64.3V21.16H67L75.6,35.42h.05V21.16Zm28.45,8.21h7.51v9.44h-1.5l-.55-2.28a6.92,6.92,0,0,1-5.65,2.75,5.76,5.76,0,0,1-4.84-2,9.59,9.59,0,0,1-2.7-7.45c0-4.31,2.12-9.15,7.7-9.15,3.2,0,6.75,1.87,7.25,5.83h-2.24c-.74-3.08-3.24-3.71-5.13-3.71-3.07,0-5.19,2.53-5.19,7.15,0,3.59,1.44,7.28,5.29,7.28a5.32,5.32,0,0,0,3.5-1.13,5.5,5.5,0,0,0,1.89-4.7H104.1v-2Zm12.18,1.87h5.27c2.76,0,3,1.7,3,3.15a22.5,22.5,0,0,0,.4,4.42h2.84v-.39c-.71-.42-.83-.79-.86-1.77l-.14-3.2c-.09-2.46-1.07-2.9-2-3.32a4.35,4.35,0,0,0,2.39-4.23c0-3.73-2.82-4.74-5.63-4.74H114V38.81h2.31Zm0-8h5.43c1.15,0,3.08.22,3.08,2.95S123,29.2,121.31,29.2h-5v-6Zm16.52,8.36,2.74-7.77h.05l2.53,7.77Zm-.72,2.11H139l1.7,5.14h2.52L137,21.16h-2.62l-6.44,17.65h2.39ZM36,38.81,31.48,24h-.05c0,1.64.05,3.88.05,4.4V38.81H29.24V21.16h3.29l4.59,14.92h.1l4.59-14.92H45.1V38.81H42.86V28.39c0-.52,0-2.76,0-4.4h0L38.31,38.81Zm-6.8,3V60h130.5V41.86ZM29.22,0V18.14h130.5V0Z"/><path class="cls-2" d="M145.05,9.09a5.85,5.85,0,1,1,5.86,5.79A5.77,5.77,0,0,1,145.05,9.09Z"/><path class="cls-1" d="M150.91,13.92a4.67,4.67,0,0,0,4.68-4.83,4.69,4.69,0,1,0-9.38,0A4.67,4.67,0,0,0,150.91,13.92Z"/><path class="cls-2" d="M149.69,12.44h-1V5.78h2.54c1.57,0,2.35.58,2.35,1.89a1.73,1.73,0,0,1-1.72,1.83l1.89,2.94h-1.13l-1.76-2.89h-1.16v2.89Z"/><path class="cls-1" d="M150.9,8.7c.85,0,1.62-.07,1.62-1.09,0-.82-.75-1-1.45-1h-1.38V8.7Z"/><rect class="cls-3" width="189" height="60"/></g></g></svg>