<svg xmlns="http://www.w3.org/2000/svg" viewBox="0 0 189 60"><defs><style>.cls-1{fill:#292c63;}.cls-2{fill:#1d1d1b;}.cls-3{fill:none;}</style></defs><title>Sub-Zero</title><g id="Layer_2" data-name="Layer 2"><g id="Layer_1-2" data-name="Layer 1"><path class="cls-1" d="M171.06,5.38s-33.91,7.19-79,6.87h-.18c-45.13.32-79-6.87-79-6.87s7.55,13,7.59,24.62S12.8,54.62,12.8,54.62s33.91-7.19,79-6.87H92c45.13-.32,79,6.87,79,6.87s-7.55-13-7.59-24.62S171.06,5.38,171.06,5.38ZM91.93,46.17c-38.75,0-70.16-7.24-70.16-16.17S53.18,13.83,91.93,13.83,162.09,21.07,162.09,30,130.68,46.17,91.93,46.17Z"/><path class="cls-2" d="M39.69,31.54c-2.15-.33-3-1.58-3-3.14,0-2.88,2.82-3.66,6.44-3.66,5,0,7,1.29,7.16,3.65H45.13a.92.92,0,0,0-.67-.89,3.55,3.55,0,0,0-1.37-.23c-1.31,0-1.76.32-1.76.79,0,.31.14.51.57.58l5.26.78c2.21.32,3.59,1.35,3.59,3.24,0,2.71-2.22,4-7.16,4-3.39,0-7.08-.47-7.1-3.74H41.8a.84.84,0,0,0,.46.79,3.53,3.53,0,0,0,1.5.24c1.37,0,1.75-.38,1.75-.9,0-.33-.21-.66-.8-.75Z"/><path class="cls-2" d="M52,25.13h4.4v6.74c0,1.43.82,1.88,2.26,1.88s2.26-.45,2.26-1.88V25.13h4.4V32c0,3.54-2.14,4.61-6.66,4.61S52,35.58,52,32Z"/><path class="cls-2" d="M67.21,25.13h10c2.28,0,3.29,1,3.29,2.77a2.22,2.22,0,0,1-1.32,2.17v0a2.62,2.62,0,0,1,1.9,2.55c0,2.18-1.09,3.61-4.35,3.61H67.21Zm4.3,4.15h3.32c.89,0,1.1-.3,1.1-.74s-.21-.7-1.1-.7H71.51Zm0,4.27h3.76c.87,0,1.14-.37,1.14-.87s-.27-.88-1.14-.88H71.51Z"/><path class="cls-2" d="M82.65,30.32h5.66V33H82.65Z"/><path class="cls-2" d="M89.58,33.91l6.67-6H90V25.13h12.15v2.43l-6.52,5.9H102v2.8H89.58Z"/><path class="cls-2" d="M103.6,25.13h11.84v2.71H108v1.5h6.08v2.71H108v1.5h7.44v2.71H103.6Z"/><path class="cls-2" d="M124.13,32.64h-2.84v3.62H116.9V25.13h9.26a6,6,0,0,1,2.63.4c.83.41,1.43,1.88,1.52,3.09s0,3.17-1.85,3.68v0l2.17,3.93h-4.85ZM121.29,30h3.12c.86,0,1.22-.35,1.22-1.05s-.55-1-1.28-1h-3.06Z"/><path class="cls-2" d="M138.92,24.74c2.67,0,7.61.18,7.61,6s-4.94,5.95-7.61,5.95-7.61-.18-7.61-5.95S136.25,24.74,138.92,24.74Zm0,9.11c1.79,0,2.93-.89,2.93-3.15s-1.14-3.15-2.93-3.15S136,28.43,136,30.7,137.12,33.85,138.92,33.85Z"/><path class="cls-2" d="M173.86,49.6a2.34,2.34,0,1,1-2.33,2.34A2.34,2.34,0,0,1,173.86,49.6Zm0,4a1.64,1.64,0,1,0-1.56-1.64A1.55,1.55,0,0,0,173.86,53.58Zm-.24-1.39h-.13v1h-.58v-2.5h.94c.68,0,1.09.18,1.09.78s-.28.67-.69.69l.6,1h-.65Zm.35-.48c.22,0,.34-.06.34-.32s-.28-.23-.47-.23h-.35v.55Z"/><rect class="cls-3" width="189" height="60"/></g></g></svg>