<svg xmlns="http://www.w3.org/2000/svg" viewBox="0 0 189 60"><defs><style>.cls-1{fill:none;}.cls-2{fill:#231f20;}</style></defs><title>Viking</title><g id="Layer_2" data-name="Layer 2"><g id="Layer_1-2" data-name="Layer 1"><path class="cls-1" d="M39,38.51V19.63a6.33,6.33,0,0,1,6.32-6.32h93.63a6.32,6.32,0,0,1,6.32,6.32V38.51a6.32,6.32,0,0,1-6.32,6.32H45.28A6.33,6.33,0,0,1,39,38.51"/><path class="cls-2" d="M45.28,10.43a9.21,9.21,0,0,0-9.19,9.2V38.51a9.2,9.2,0,0,0,9.19,9.2h93.63a9.21,9.21,0,0,0,9.2-9.2V19.63a9.21,9.21,0,0,0-9.2-9.2M39,38.51V19.63a6.33,6.33,0,0,1,6.32-6.32h93.63a6.32,6.32,0,0,1,6.32,6.32V38.51a6.32,6.32,0,0,1-6.32,6.32H45.28A6.33,6.33,0,0,1,39,38.51Z"/><path class="cls-2" d="M43.43,17.65c-.1-.17-.09-.45.32-.45h8.64s.67.27,0,.67c0,0-2,.86-1.67,2.61l3.38,9.45,3.82-8.77s.94-2-1.57-3.29c0,0-.86-.63,0-.63h9.71s.72.23,0,.63a5.43,5.43,0,0,0-2.34,2.66c-.67,1.53-8.63,20-8.63,20s-.27.18-.36,0l-8.32-20s-.9-2.7-2.75-2.65a.48.48,0,0,1-.23-.18"/><path class="cls-2" d="M120.65,38.33h-4.58s-.81-.13,0-.67,1.88-1,1.88-2.47V24.66s-.18-2.52-2.24-2.83c0,0-.66-.67.27-.67h7.28s.95,0,0,.67-2.61,1.71-2.61,2.92V35.23"/><path class="cls-2" d="M108.89,25.81v9.42a4.06,4.06,0,0,0,2.25,2.48s.81.62,0,.62h-6.79s-1.24.15,0-.67c.81-.54,1.89-1,1.89-2.47V24.66S106,22.14,104,21.83c0,0-.66-.67.27-.67h8L118,32.71l.27,3.56-1.94,2.06h-.54l-6.88-12.52"/><path class="cls-2" d="M92.93,21.16h10.9s1,0,0,.67-2.6,1.71-2.6,2.92V35.23a4,4,0,0,0,2.24,2.48s1.4.62,0,.62H93.22l0-.44,1.15-.23c.81-.54,1.89-1,1.89-2.47V24.66s-.18-2.56-2.43-3l-1-.18"/><path class="cls-2" d="M93,21.49a12.79,12.79,0,0,0-6.32,4.39l5.71,11.51a.91.91,0,0,0,.9.52v.42h-8.5s-.4-.18,0-.62a2.81,2.81,0,0,0,1-2.3L83,29.66l-2.47,2.67-.05-2.72,5.9-5.94s1.43-1.84-1.26-1.84c0,0-.68-.65,0-.65H93"/><path class="cls-2" d="M138,19.9l1,7.73s-.36.54-.63.05-2.12-5.26-6.61-5.26c0,0-5.09.13-5.09,8.31s3.47,8.86,4.1,8.77c0,0,3.55-.18,3.55-4.31,0,0-.07-2.66-1.84-3,0,0-.86-.58-.05-.58h8.32s.81,0,0,.63-1.57.67-1.57,1.89V41.3s.14.81-.76,0-2-1.82-4.91-1.17c-3.48.79-2.47.81-4.67.63,0,0-7.42-2-7.42-10s6.88-10.07,10.21-10a7.39,7.39,0,0,1,3.05.77s2.21,1.08,2.66-1.62c0,0,.54-1.22.67,0"/><path class="cls-2" d="M62.08,21.16H73s1,0,0,.67-2.6,1.71-2.6,2.92V35.23a4.06,4.06,0,0,0,2.25,2.48s1.39.62,0,.62H62.37l0-.44,1.15-.23c.81-.54,1.89-1,1.89-2.47V24.66s-.18-2.56-2.43-3l-1-.18"/><path class="cls-2" d="M72.47,21.16h10.9s.95,0,0,.67-2.61,1.71-2.61,2.92V35.23A4.06,4.06,0,0,0,83,37.71s1.4.62,0,.62H72.76l0-.44,1.15-.23c.81-.54,1.89-1,1.89-2.47V24.66s-.18-2.56-2.43-3l-1-.18"/><path class="cls-2" d="M150.37,43.69a2.6,2.6,0,1,1-2.58,2.59,2.55,2.55,0,0,1,2.58-2.59Zm0,.4a2.2,2.2,0,1,0,2.08,2.2,2.13,2.13,0,0,0-2.08-2.2Zm-.49,3.7h-.46V44.9a4.73,4.73,0,0,1,.82-.07,1.49,1.49,0,0,1,.9.22.7.7,0,0,1,.26.6.71.71,0,0,1-.56.7v0c.25.05.43.28.48.71a2.14,2.14,0,0,0,.19.71H151a2.51,2.51,0,0,1-.19-.74.54.54,0,0,0-.62-.5h-.33Zm0-1.6h.34c.38,0,.7-.14.7-.5s-.18-.5-.7-.5l-.34,0Z"/><rect class="cls-1" width="189" height="60"/></g></g></svg>