<svg xmlns="http://www.w3.org/2000/svg" viewBox="0 0 189 60"><defs><style>.cls-1{fill:#c51627;}.cls-2{fill:#4a4a49;}.cls-3{fill:none;}</style></defs><title>Wolf</title><g id="Layer_2" data-name="Layer 2"><g id="Layer_1-2" data-name="Layer 1"><path class="cls-1" d="M58.49,23.47s0,2.67,1.32,2.39c0,0,1.32-.36.18-1.74a3.3,3.3,0,0,1,.75-3.53s.63-.53.57.59a3.07,3.07,0,0,0,1.84,3.12,3.13,3.13,0,0,1,1.23,2s.44,3.31-1.84,3.5A2.92,2.92,0,0,0,62,27s.88,2.94-1.41,3.22a3.28,3.28,0,0,1-4-1.94S55.24,25.41,58.49,23.47Z"/><path class="cls-2" d="M68,24.12v8.82A18.52,18.52,0,0,0,60.06,31a19.85,19.85,0,0,0-7.9,1.93V24.12c-.92-4.41-6-4.51-6-4.51V35.15c.28,2.3,2.85,2.39,2.85,2.39a6.91,6.91,0,0,0,3-.64C56.2,35,58.26,34.63,60,34.52c1.71.08,3.94.46,8.08,2.38a6.91,6.91,0,0,0,3,.64s2.58-.09,2.85-2.39V19.61S68.89,19.71,68,24.12Z"/><path class="cls-2" d="M110.6,32.94V24.12c-.92-4.41-6-4.51-6-4.51V35.15c.28,2.3,2.85,2.39,2.85,2.39h12.74a2.07,2.07,0,0,0,1.53-2.17,2.11,2.11,0,0,0-1.57-2.11h-9.58Z"/><path class="cls-2" d="M129,27.65h9.93a2.21,2.21,0,0,1,1.78,2A2,2,0,0,1,139,31.75H129Z"/><path class="cls-2" d="M129.68,25.5H139A5.15,5.15,0,0,0,143.26,20H125.79c-2.3.27-2.4,2.85-2.4,2.85V35.6s0,2.19,3,2.19c0,0,2.7,0,3-2.23V25.49Z"/><path class="cls-2" d="M94.23,19.52H84.57c-3,0-6.41,2.46-6.41,5.47v7.08c0,3,3.4,5.47,6.41,5.47h9.66c3,0,6.22-2.46,6.22-5.47V25C100.45,22,97.24,19.52,94.23,19.52Zm.45,11.26c0,1.92-1.56,3-3.48,3H87.4c-1.92,0-3.49-1.13-3.49-3v-4.5c0-1.92,1.57-3.08,3.49-3.08h3.8c1.92,0,3.48,1.16,3.48,3.08Z"/><path class="cls-2" d="M145.32,20.19h-.54V20h1.31v.2h-.54v1.57h-.23Z"/><path class="cls-2" d="M147.78,21c0-.25,0-.55,0-.77h0c-.06.21-.13.43-.22.67l-.31.86H147l-.28-.84a6.5,6.5,0,0,1-.21-.69h0c0,.22,0,.52,0,.78l0,.76h-.21l.12-1.77h.29l.3.86a4.4,4.4,0,0,1,.18.6h0a5.05,5.05,0,0,1,.19-.6l.31-.86h.29l.11,1.77h-.22Z"/><rect class="cls-3" width="189" height="60"/></g></g></svg>